<svg width="16" height="16" viewBox="0 0 16 16" fill="none" xmlns="http://www.w3.org/2000/svg">
<path d="M7.33333 11.3334H8.66666V7.33337H7.33333V11.3334ZM8 6.00004C8.18888 6.00004 8.34733 5.93604 8.47533 5.80804C8.60333 5.68004 8.66711 5.52182 8.66666 5.33337C8.66622 5.14493 8.60222 4.98671 8.47466 4.85871C8.34711 4.73071 8.18888 4.66671 8 4.66671C7.81111 4.66671 7.65288 4.73071 7.52533 4.85871C7.39777 4.98671 7.33377 5.14493 7.33333 5.33337C7.33288 5.52182 7.39688 5.68026 7.52533 5.80871C7.65377 5.93715 7.812 6.00093 8 6.00004ZM8 14.6667C7.07777 14.6667 6.21111 14.4916 5.4 14.1414C4.58889 13.7912 3.88333 13.3163 3.28333 12.7167C2.68333 12.1172 2.20844 11.4116 1.85866 10.6C1.50888 9.78849 1.33377 8.92182 1.33333 8.00004C1.33288 7.07826 1.508 6.2116 1.85866 5.40004C2.20933 4.58849 2.68422 3.88293 3.28333 3.28337C3.88244 2.68382 4.588 2.20893 5.4 1.85871C6.212 1.50849 7.07866 1.33337 8 1.33337C8.92133 1.33337 9.788 1.50849 10.6 1.85871C11.412 2.20893 12.1176 2.68382 12.7167 3.28337C13.3158 3.88293 13.7909 4.58849 14.142 5.40004C14.4931 6.2116 14.668 7.07826 14.6667 8.00004C14.6653 8.92182 14.4902 9.78849 14.1413 10.6C13.7924 11.4116 13.3176 12.1172 12.7167 12.7167C12.1158 13.3163 11.4102 13.7914 10.6 14.142C9.78977 14.4927 8.92311 14.6676 8 14.6667Z" fill="black"/>
</svg>
