<svg width="24" height="24" viewBox="0 0 24 24" fill="none" xmlns="http://www.w3.org/2000/svg">
<path d="M10.15 16.15L6.70002 12.7C6.50002 12.5 6.40002 12.2667 6.40002 12C6.40002 11.7333 6.50002 11.5 6.70002 11.3L10.15 7.85C10.3167 7.68334 10.5 7.64167 10.7 7.725C10.9 7.80834 11 7.96667 11 8.2V15.8C11 16.0333 10.9 16.1917 10.7 16.275C10.5 16.3583 10.3167 16.3167 10.15 16.15ZM13 20V4C13 3.71667 13.096 3.47934 13.288 3.288C13.48 3.09667 13.7174 3.00067 14 3C14.2827 2.99934 14.5204 3.09534 14.713 3.288C14.9057 3.48067 15.0014 3.718 15 4V20C15 20.2833 14.904 20.521 14.712 20.713C14.52 20.905 14.2827 21.0007 14 21C13.7174 20.9993 13.48 20.9033 13.288 20.712C13.096 20.5207 13 20.2833 13 20Z" fill="black"/>
</svg>
