<svg width="16" height="16" viewBox="0 0 16 16" fill="none" xmlns="http://www.w3.org/2000/svg">
<path d="M8.00001 7.66671C7.55798 7.66671 7.13406 7.49111 6.8215 7.17855C6.50894 6.86599 6.33334 6.44207 6.33334 6.00004C6.33334 5.55801 6.50894 5.13409 6.8215 4.82153C7.13406 4.50897 7.55798 4.33337 8.00001 4.33337C8.44204 4.33337 8.86596 4.50897 9.17852 4.82153C9.49108 5.13409 9.66668 5.55801 9.66668 6.00004C9.66668 6.21891 9.62357 6.43564 9.53981 6.63785C9.45605 6.84006 9.33329 7.02379 9.17852 7.17855C9.02376 7.33332 8.84002 7.45608 8.63782 7.53984C8.43561 7.6236 8.21888 7.66671 8.00001 7.66671ZM8.00001 1.33337C6.76233 1.33337 5.57535 1.82504 4.70018 2.70021C3.82501 3.57538 3.33334 4.76236 3.33334 6.00004C3.33334 9.50004 8.00001 14.6667 8.00001 14.6667C8.00001 14.6667 12.6667 9.50004 12.6667 6.00004C12.6667 4.76236 12.175 3.57538 11.2998 2.70021C10.4247 1.82504 9.23769 1.33337 8.00001 1.33337Z" fill="black"/>
</svg>
