<svg width="25" height="24" viewBox="0 0 25 24" fill="none" xmlns="http://www.w3.org/2000/svg">
<path d="M13.59 20C13.71 20.72 13.96 21.39 14.31 22H6.5C5.39 22 4.5 21.11 4.5 20V4C4.5 3.46957 4.71071 2.96086 5.08579 2.58579C5.46086 2.21071 5.96957 2 6.5 2H18.5C19.0304 2 19.5391 2.21071 19.9142 2.58579C20.2893 2.96086 20.5 3.46957 20.5 4V13.09C20.17 13.04 19.84 13 19.5 13C19.16 13 18.83 13.04 18.5 13.09V4H13.5V12L11 9.75L8.5 12V4H6.5V20H13.59ZM20.5 18V15H18.5V18H15.5V20H18.5V23H20.5V20H23.5V18H20.5Z" fill="black"/>
</svg>
