<svg width="25" height="24" viewBox="0 0 25 24" fill="none" xmlns="http://www.w3.org/2000/svg">
<path d="M19.5 23.3L18.9 22.8C16.9 20.9 15.5 19.7 15.5 18.2C15.5 17 16.5 16 17.7 16C18.4 16 19.1 16.3 19.5 16.8C19.9 16.3 20.6 16 21.3 16C22.5 16 23.5 16.9 23.5 18.2C23.5 19.7 22.1 20.9 20.1 22.8L19.5 23.3ZM18.5 2C19.6 2 20.5 2.9 20.5 4V13.08L19.5 13L18.5 13.08V4H13.5V12L11 9.75L8.5 12V4H6.5V20H13.58C13.7 20.72 13.95 21.39 14.3 22H6.5C5.4 22 4.5 21.1 4.5 20V4C4.5 2.9 5.4 2 6.5 2H18.5Z" fill="black"/>
</svg>
