<svg width="24" height="24" viewBox="0 0 24 24" fill="none" xmlns="http://www.w3.org/2000/svg">
<path d="M13.5 20C13.81 20.75 14.26 21.42 14.82 22H6C4.89 22 4 21.11 4 20V4C4 3.46957 4.21071 2.96086 4.58579 2.58579C4.96086 2.21071 5.46957 2 6 2H18C18.5304 2 19.0391 2.21071 19.4142 2.58579C19.7893 2.96086 20 3.46957 20 4V11.03C19.84 11 19.67 11 19.5 11C19 11 18.5 11.07 18 11.18V4H13V12L10.5 9.75L8 12V4H6V20H13.5ZM19 20C18.337 20 17.7011 19.7366 17.2322 19.2678C16.7634 18.7989 16.5 18.163 16.5 17.5C16.5 17.1 16.59 16.72 16.76 16.38L15.67 15.29C15.25 15.92 15 16.68 15 17.5C15 19.71 16.79 21.5 19 21.5V23L21.25 20.75L19 18.5V20ZM19 13.5V12L16.75 14.25L19 16.5V15C19.663 15 20.2989 15.2634 20.7678 15.7322C21.2366 16.2011 21.5 16.837 21.5 17.5C21.5 17.9 21.41 18.28 21.24 18.62L22.33 19.71C22.75 19.08 23 18.32 23 17.5C23 15.29 21.21 13.5 19 13.5Z" fill="black"/>
</svg>
