<svg width="16" height="16" viewBox="0 0 16 16" fill="none" xmlns="http://www.w3.org/2000/svg">
<path d="M8.22 2.96983C8.36063 2.82938 8.55125 2.75049 8.75 2.75049C8.94875 2.75049 9.13937 2.82938 9.28 2.96983L13.53 7.21983C13.6705 7.36045 13.7493 7.55108 13.7493 7.74983C13.7493 7.94858 13.6705 8.1392 13.53 8.27983L9.28 12.5298C9.13785 12.6625 8.94975 12.7347 8.75536 12.7314C8.56097 12.728 8.37548 12.6493 8.238 12.5118C8.10053 12.3743 8.02181 12.1889 8.01846 11.9945C8.0151 11.8001 8.08736 11.612 8.22 11.4698L11.19 8.49983H3.75C3.55109 8.49983 3.36032 8.42081 3.21967 8.28016C3.07902 8.13951 3 7.94874 3 7.74983C3 7.55092 3.07902 7.36015 3.21967 7.2195C3.36032 7.07885 3.55109 6.99983 3.75 6.99983H11.19L8.22 4.02983C8.07955 3.8892 8.00066 3.69858 8.00066 3.49983C8.00066 3.30108 8.07955 3.11045 8.22 2.96983Z" fill="black"/>
</svg>
